{"title":"Mr Poppers Penguins 2011 CAM Xvid UnKnOwN","uid":6527125,"size":945426434,"categoryP":"video","categoryS":"movies","magnet":"?xt=urn:btih:27003151d710b7a4f76f9630617b1b3fec152c19&amp;dn=Mr+Poppers+Penguins+2011+CAM+Xvid+UnKnOwN&amp;tr=udp%3A%2F%2Ftracker.openbittorrent.com%3A80&amp;tr=udp%3A%2F%2Fopen.demonii.com%3A1337&amp;tr=udp%3A%2F%2Ftracker.coppersurfer.tk%3A6969&amp;tr=udp%3A%2F%2Fexodus.desync.com%3A6969","seeders":0,"leechers":1,"uploader":"HeroMaster","files":-1,"time":1310200424,"description":"::::::: UnKnOwN Presents :::::::\n\n\n:::: Mr Poppers Penguins 2011 CAM Xvid UnKnOwN ::::\n\n\n::NOTES:: \n\n\nEncoded By .......:UnKnOwN \nRelease Date ......... 2011\nRuntime ..........:1:27 \nSource ......... Russian/FU\nIMDb URL .........:http://www.imdb.com/title/tt1396218/ \nFile Type ......... Single AVI\nLanguage .........:English \nCompatible ....... I made sure it wasn't(:\nFile Size ........:893mb \nGenre ......... Comedy/Family\n\n\n::Details::\n\n\nVideo\nID: 0\nFormat: MPEG-4 Visual\nFormat profile: Advanced Simple@L5\nFormat settings, BVOP: Yes\nFormat settings, QPel: No\nFormat settings, GMC: No warppoints\nFormat settings, Matrix: Custom\nCodec ID: XVID\nCodec ID/Hint: XviD\nDuration: 1h 27mn\nBit rate: 1 298 Kbps\nWidth: 680 pixels\nHeight: 372 pixels\nDisplay aspect ratio: 16:9\nFrame rate: 25.000 fps\nColor space: YUV\nChroma subsampling: 4:2:0\nBit depth: 8 bits\nScan type: Progressive\nBits/(Pixel*Frame): 0.205\nStream size: 810 MiB (91%)\nWriting library: XviD 1.2.1 (UTC 2008-12-04)\n\n\nAudio\nID: 1\nFormat: AC-3\nFormat/Info: Audio Coding 3\nMode extension: CM (complete main)\nCodec ID: 2000\nDuration: 1h 27mn\nBit rate mode: Constant\nBit rate: 128 Kbps\nChannel(s): 2 channels\nChannel positions: Front: L R\nSampling rate: 48.0 KHz\nBit depth: 16 bits\nStream size: 79.8 MiB (9%)\nAlignment: Aligned on interleaves\nInterleave, duration: 480 ms (12.00 video frames)\nInterleave, preload duration: 960 ms\n\n\n::SYSPNOSIS::\n\n\nThe life of a businessman begins to change after he inherits six penguins, and as he transforms his apartment\ninto a winter wonderland, his professional side starts to unravel\n\n\n::More Information::\n\n &lt;a href=&quot;\nhttp://www.postimg.com/image/42000/photo-41124.jpg&quot; rel=&quot;nofollow&quot; target=&quot;_NEW&quot;&gt;\nhttp://www.postimg.com/image/42000/photo-41124.jpg&lt;/a&gt;\n\n\n::Screens::\n\n &lt;a href=&quot;\nhttp://www.postimg.com/image/42000/photo-41123.jpg&quot; rel=&quot;nofollow&quot; target=&quot;_NEW&quot;&gt;\nhttp://www.postimg.com/image/42000/photo-41123.jpg&lt;/a&gt;\n &lt;a href=&quot;\nhttp://www.postimg.com/image/42000/photo-41125.jpg&quot; rel=&quot;nofollow&quot; target=&quot;_NEW&quot;&gt;\nhttp://www.postimg.com/image/42000/photo-41125.jpg&lt;/a&gt;\n &lt;a href=&quot;\nhttp://www.postimg.com/image/42000/photo-41126.jpg&quot; rel=&quot;nofollow&quot; target=&quot;_NEW&quot;&gt;\nhttp://www.postimg.com/image/42000/photo-41126.jpg&lt;/a&gt;\n\n\nENJOY!","torrent":{"xt":"urn:btih:27003151d710b7a4f76f9630617b1b3fec152c19","amp;dn":"Mr+Poppers+Penguins+2011+CAM+Xvid+UnKnOwN","amp;tr":["udp%3A%2F%2Ftracker.openbittorrent.com%3A80","udp%3A%2F%2Fopen.demonii.com%3A1337","udp%3A%2F%2Ftracker.coppersurfer.tk%3A6969","udp%3A%2F%2Fexodus.desync.com%3A6969"],"infoHash":"27003151d710b7a4f76f9630617b1b3fec152c19","infoHashBuffer":{"type":"Buffer","data":[39,0,49,81,215,16,183,164,247,111,150,48,97,123,27,63,236,21,44,25]},"announce":[],"urlList":[]}}